<svg width="156" height="128" viewBox="0 0 156 128" fill="none" xmlns="http://www.w3.org/2000/svg">
<g clip-path="url(#clip0_2004_4139)">
<g filter="url(#filter0_d_2004_4139)">
<path d="M95.8107 35.4076C95.6982 35.3653 95.5642 35.3985 95.4445 35.3868C87.3283 34.5898 78.9532 34.8713 70.6096 36.2442C70.4935 36.2633 70.3734 36.2863 70.2808 36.359C70.1433 36.4669 70.104 36.6502 70.0765 36.8228C70.0368 37.0715 69.9976 37.3274 69.9592 37.5886C69.4617 40.9653 66.9745 43.7642 63.6684 44.6113C58.9863 45.811 54.408 47.3831 49.9774 49.3121C46.2823 50.921 41.942 50.1237 38.8919 47.4902C38.6774 47.2818 38.332 47.5337 38.0714 47.6805C30.7748 51.7899 24.1721 56.7376 18.3278 62.3898C18.2597 62.4556 18.1801 62.5039 18.1348 62.5871C18.1144 62.6246 18.0967 62.6734 18.0861 62.7148C11.215 89.4175 14.5994 111.876 23.8582 132.04C23.9343 132.257 24.2228 132.284 24.4435 132.351C36.341 135.945 46.9292 136.961 56.9195 136.603C57.2155 136.599 57.2979 136.224 57.3815 135.94C58.4227 132.403 59.2138 128.788 59.7074 125.111C59.7393 124.861 59.5585 124.686 59.3271 124.707C55.8853 124.597 52.5286 124.218 49.1507 123.607C48.677 123.547 49.0305 122.844 49.2923 122.444C49.5099 122.112 49.7256 121.775 49.9444 121.447C50.1012 121.211 50.256 120.876 50.5365 120.912C71.7591 122.866 91.4951 115.96 106.659 101.273C106.747 101.182 106.907 101.126 107.05 101.196C107.803 101.47 108.537 101.691 109.29 101.965C109.777 102.12 109.278 102.768 108.944 103.154C106.882 105.54 104.595 107.71 102.169 109.775C101.825 110.001 102.275 110.47 102.577 110.749C105.15 113.117 107.848 115.295 110.632 117.297C110.907 117.494 111.285 117.692 111.553 117.485C119.641 111.518 127.287 104.121 134.351 93.8914C134.482 93.7016 134.69 93.5005 134.614 93.2829C128.528 68.3753 115.011 49.6454 95.9388 35.4834C95.8972 35.4524 95.8592 35.4259 95.8107 35.4076ZM56.2743 106.416C50.795 108.333 44.4514 104.877 42.2733 98.6482C40.0951 92.4196 42.7951 85.7985 48.3808 83.8439C54.0196 81.8707 60.2754 85.4177 62.3817 91.6117C64.5599 97.8403 61.8599 104.461 56.2743 106.416ZM93.3525 93.4412C87.8732 95.3585 81.5297 91.902 79.3515 85.6735C77.1734 79.4449 79.8733 72.8238 85.459 70.8692C91.0979 68.896 97.3536 72.443 99.46 78.6369C101.638 84.8655 98.9914 91.468 93.3525 93.4412Z" fill="#199FEC" fill-opacity="0.15" shape-rendering="crispEdges"/>
<path d="M38.6438 47.9347C41.8246 50.6314 46.3245 51.4476 50.1765 49.7706C54.5827 47.8522 59.136 46.2892 63.7922 45.0961C67.2962 44.1982 69.9271 41.2343 70.4535 37.6613L70.5696 36.9016C70.5759 36.8623 70.5823 36.8298 70.5885 36.8018C70.5931 36.7816 70.597 36.766 70.6008 36.7541C70.607 36.7526 70.6145 36.7512 70.623 36.7494C70.6419 36.7456 70.6635 36.7415 70.6911 36.737C78.9927 35.3711 87.3242 35.0913 95.3958 35.8839C95.4557 35.8897 95.5106 35.89 95.5497 35.889C95.5691 35.8885 95.588 35.8876 95.6028 35.887C95.6184 35.8864 95.6305 35.8851 95.6413 35.8849C114.616 49.9749 128.057 68.595 134.118 93.3598C134.105 93.3813 134.087 93.4086 134.058 93.4459C134.029 93.4845 133.98 93.5491 133.939 93.6077C126.915 103.781 119.313 111.135 111.272 117.07C111.264 117.069 111.253 117.068 111.238 117.064C111.155 117.039 111.045 116.978 110.924 116.891C108.155 114.9 105.473 112.734 102.916 110.381C102.794 110.269 102.682 110.153 102.608 110.055C105.004 108.008 107.272 105.853 109.322 103.481C109.488 103.29 109.74 102.983 109.879 102.681C109.945 102.537 110.025 102.313 109.98 102.07C109.924 101.774 109.713 101.582 109.46 101.496L109.461 101.496C109.077 101.356 108.699 101.229 108.328 101.106C107.956 100.982 107.591 100.86 107.222 100.726L107.221 100.728C106.902 100.597 106.588 100.691 106.384 100.85L106.312 100.913C91.2536 115.498 71.6612 122.355 50.5821 120.414L50.5815 120.415C50.2032 120.375 49.9482 120.596 49.8147 120.752C49.6964 120.889 49.5698 121.107 49.5284 121.169C49.3089 121.499 49.0866 121.846 48.8738 122.17C48.7352 122.382 48.546 122.712 48.463 123.025C48.4237 123.173 48.3845 123.401 48.4669 123.628C48.5122 123.752 48.5926 123.87 48.7142 123.959C48.8244 124.04 48.9465 124.08 49.0618 124.098L49.0621 124.099C52.4217 124.706 55.7632 125.085 59.1888 125.201C58.6975 128.797 57.9216 132.335 56.9018 135.799C56.8768 135.884 56.8619 135.942 56.8401 136.01C56.8272 136.05 56.8128 136.081 56.8023 136.106C46.8913 136.452 36.3891 135.438 24.5884 131.873C24.5203 131.852 24.441 131.833 24.3943 131.821C24.3491 131.809 24.3178 131.799 24.2938 131.791C15.0942 111.736 11.7342 89.4077 18.5694 62.8421C18.5763 62.8362 18.5853 62.8289 18.599 62.8173C18.6181 62.801 18.6464 62.7773 18.6755 62.7491C24.4891 57.1267 31.0572 52.2049 38.3163 48.1166C38.3539 48.0954 38.3923 48.0722 38.4262 48.0522C38.4617 48.0313 38.4943 48.0125 38.5261 47.9945C38.5733 47.9678 38.6121 47.949 38.6438 47.9347ZM48.2162 83.3722C42.3191 85.4357 39.551 92.3782 41.8015 98.8135C44.0532 105.252 50.6521 108.913 56.4397 106.888C62.1521 104.889 64.9283 98.311 63.0505 92.0514L62.8535 91.4468C60.674 85.0441 54.1647 81.2909 48.2162 83.3722ZM85.2939 70.3976C79.3969 72.4612 76.6297 79.4034 78.8801 85.8386C81.1318 92.2771 87.7299 95.9384 93.5174 93.9133C99.2833 91.8956 102.009 85.3333 100.128 79.076L99.9321 78.4719C97.7526 72.0691 91.2425 68.316 85.2939 70.3976Z" stroke="#199FEC" stroke-opacity="0.75" stroke-width="0.999715" shape-rendering="crispEdges"/>
</g>
</g>
<defs>
<filter id="filter0_d_2004_4139" x="-10.457" y="14.1921" width="169.992" height="151.534" filterUnits="userSpaceOnUse" color-interpolation-filters="sRGB">
<feFlood flood-opacity="0" result="BackgroundImageFix"/>
<feColorMatrix in="SourceAlpha" type="matrix" values="0 0 0 0 0 0 0 0 0 0 0 0 0 0 0 0 0 0 127 0" result="hardAlpha"/>
<feOffset dy="4.15071"/>
<feGaussianBlur stdDeviation="12.4521"/>
<feComposite in2="hardAlpha" operator="out"/>
<feColorMatrix type="matrix" values="0 0 0 0 0 0 0 0 0 0 0 0 0 0 0 0 0 0 0.15 0"/>
<feBlend mode="normal" in2="BackgroundImageFix" result="effect1_dropShadow_2004_4139"/>
<feBlend mode="normal" in="SourceGraphic" in2="effect1_dropShadow_2004_4139" result="shape"/>
</filter>
<clipPath id="clip0_2004_4139">
<rect width="156" height="128" fill="white"/>
</clipPath>
</defs>
</svg>
