<svg width="28" height="28" viewBox="0 0 28 28" fill="none" xmlns="http://www.w3.org/2000/svg">
<path d="M8.22217 15.6404L12.3463 19.7658L10.698 21.4151L12.3484 23.0663L10.6984 24.7162L7.81152 21.8283L4.51125 25.1286L2.86133 23.4787L6.16159 20.1784L3.27381 17.2915L4.92373 15.6416L6.57325 17.2902L8.22217 15.6404ZM3.49827 3.5L7.63526 3.50391L21.4222 17.2908L23.0728 15.6416L24.7228 17.2915L21.8354 20.1789L25.1352 23.4787L23.4853 25.1286L20.1855 21.8288L17.2981 24.7162L15.6482 23.0663L17.2974 21.4156L3.50147 7.61971L3.49827 3.5ZM20.365 3.50012L24.4983 3.50391L24.5005 7.61423L19.7721 12.3411L15.6468 8.21695L20.365 3.50012Z" fill="#199FEC"/>
</svg>
