<svg width="28" height="28" viewBox="0 0 28 28" fill="none" xmlns="http://www.w3.org/2000/svg">
<path d="M14.0007 2.3335C20.4432 2.3335 25.6673 6.97424 25.6673 12.7039C25.6673 16.2817 22.7636 19.1853 19.1858 19.1853H16.8914C15.8155 19.1853 14.9469 20.0539 14.9469 21.1298C14.9469 21.6223 15.1414 22.0761 15.4395 22.4131C15.7507 22.7631 15.9451 23.2168 15.9451 23.7223C15.9451 24.7984 15.0507 25.6668 14.0007 25.6668C7.55806 25.6668 2.33398 20.4427 2.33398 14.0002C2.33398 7.55757 7.55806 2.3335 14.0007 2.3335ZM8.75065 14.0002C9.71715 14.0002 10.5007 13.2166 10.5007 12.2502C10.5007 11.2837 9.71715 10.5002 8.75065 10.5002C7.78415 10.5002 7.00065 11.2837 7.00065 12.2502C7.00065 13.2166 7.78415 14.0002 8.75065 14.0002ZM19.2507 14.0002C20.2171 14.0002 21.0007 13.2166 21.0007 12.2502C21.0007 11.2837 20.2171 10.5002 19.2507 10.5002C18.2842 10.5002 17.5007 11.2837 17.5007 12.2502C17.5007 13.2166 18.2842 14.0002 19.2507 14.0002ZM14.0007 10.5002C14.9671 10.5002 15.7507 9.71666 15.7507 8.75016C15.7507 7.78366 14.9671 7.00016 14.0007 7.00016C13.0342 7.00016 12.2507 7.78366 12.2507 8.75016C12.2507 9.71666 13.0342 10.5002 14.0007 10.5002Z" fill="#199FEC"/>
</svg>
