<svg width="156" height="128" viewBox="0 0 156 128" fill="none" xmlns="http://www.w3.org/2000/svg">
<g clip-path="url(#clip0_2004_4111)">
<g filter="url(#filter0_d_2004_4111)">
<mask id="path-1-inside-1_2004_4111" fill="white">
<path d="M83.3661 82.427C79.0326 81.1649 74.3753 81.6759 70.4186 83.8477C66.4619 86.0195 63.5301 89.6741 62.2679 94.0076C61.0058 98.341 61.5169 102.998 63.6886 106.955C65.8604 110.912 69.515 113.844 73.8485 115.106C78.182 116.368 82.8393 115.857 86.796 113.685C90.7527 111.513 93.6846 107.859 94.9467 103.525C96.2088 99.1917 95.6977 94.5344 93.526 90.5777C91.3542 86.621 87.6996 83.6891 83.3661 82.427ZM86.5387 71.5341C93.7611 73.6376 99.8521 78.5241 103.472 85.1185C107.091 91.713 107.943 99.4753 105.84 106.698C103.736 113.92 98.8496 120.011 92.2551 123.631C85.6607 127.25 77.8984 128.102 70.6759 125.999C63.4535 123.895 57.3625 119.009 53.7429 112.414C50.1232 105.82 49.2715 98.0575 51.375 90.835C53.4785 83.6126 58.365 77.5215 64.9595 73.9019C71.554 70.2823 79.3162 69.4306 86.5387 71.5341ZM122.337 80.4832C121.811 82.2888 120.59 83.8116 118.941 84.7165C117.292 85.6214 115.352 85.8343 113.546 85.3085C111.741 84.7826 110.218 83.561 109.313 81.9123C108.408 80.2637 108.195 78.3232 108.721 76.5175C109.247 74.7119 110.469 73.1892 112.117 72.2843C113.766 71.3794 115.706 71.1664 117.512 71.6923C119.318 72.2182 120.84 73.4398 121.745 75.0884C122.65 76.7371 122.863 78.6776 122.337 80.4832ZM91.2975 55.1947C77.8229 51.2703 75.6115 50.6675 69.2617 49.1195C64.933 48.0774 61.9016 47.8149 58.9423 48.0756C56.4807 48.2471 54.0893 48.9702 51.945 50.1913C49.7617 51.3434 47.8657 52.9722 46.3975 54.9568C44.5854 57.3241 43.1808 60.017 41.7426 64.2244C39.7082 70.1548 39.0577 72.2461 35.0302 86.0746C31.1042 99.5546 30.503 101.761 28.955 108.11C27.9145 112.434 27.6504 115.471 27.9073 118.423C28.1431 121.062 28.7359 123.084 30.0175 125.418C31.32 127.783 32.7059 129.374 34.7845 130.96C37.1721 132.784 39.8688 134.196 44.0599 135.629C49.9903 137.664 52.0831 138.309 65.9117 142.336C79.3917 146.262 81.5977 146.864 87.9475 148.412C92.2653 149.451 95.2967 149.713 98.2598 149.459C100.721 149.288 103.113 148.565 105.257 147.344C107.626 146.048 109.217 144.662 110.805 142.578C112.62 140.2 114.032 137.503 115.468 133.301C117.501 127.376 118.148 125.278 122.174 111.455C126.098 97.9804 126.701 95.7689 128.249 89.4192C129.288 85.1013 129.548 82.0575 129.293 79.0998C129.121 76.6382 128.398 74.2467 127.177 72.1025C126.025 69.9192 124.396 68.0232 122.411 66.555C120.044 64.7429 117.346 63.3366 113.144 61.9001C107.219 59.8672 105.126 59.2223 91.292 55.1931M94.4646 44.3002C109.263 48.6101 111.093 49.2023 116.825 51.1672C122.541 53.1273 126.23 55.1885 129.306 57.5497C132.498 59.98 134.98 62.7356 137.128 66.6403C139.106 70.169 140.29 74.0869 140.597 78.1204C140.932 81.9816 140.695 86.2022 139.278 92.082C137.843 97.9625 137.376 99.8295 133.066 114.627C128.757 129.426 128.164 131.256 126.201 136.983C124.238 142.709 122.174 146.386 119.817 149.469C117.392 152.707 114.29 155.376 110.726 157.291C107.198 159.269 103.28 160.453 99.2462 160.76C95.385 161.095 91.1644 160.858 85.2901 159.443C79.4041 158.006 77.5372 157.539 62.7391 153.229C47.9411 148.919 46.1106 148.327 40.3786 146.362C34.6629 144.402 30.9807 142.337 27.8976 139.98C24.6598 137.555 21.9903 134.453 20.0755 130.889C18.0976 127.361 16.9138 123.443 16.6066 119.409C16.2663 115.546 16.5084 111.327 17.9255 105.448C19.355 99.5655 19.8274 97.7001 24.1373 82.9021C28.4472 68.104 29.0394 66.2736 31.0027 60.5469C32.966 54.8203 35.024 51.142 37.3868 48.0606C39.8117 44.8228 42.9141 42.1533 46.4774 40.2384C50.0061 38.2606 53.924 37.0767 57.9575 36.7695C61.8203 36.4293 66.0339 36.6697 71.9137 38.0868C77.805 39.525 79.672 39.9919 94.47 44.3018"/>
</mask>
<path d="M83.3661 82.427C79.0326 81.1649 74.3753 81.6759 70.4186 83.8477C66.4619 86.0195 63.5301 89.6741 62.2679 94.0076C61.0058 98.341 61.5169 102.998 63.6886 106.955C65.8604 110.912 69.515 113.844 73.8485 115.106C78.182 116.368 82.8393 115.857 86.796 113.685C90.7527 111.513 93.6846 107.859 94.9467 103.525C96.2088 99.1917 95.6977 94.5344 93.526 90.5777C91.3542 86.621 87.6996 83.6891 83.3661 82.427ZM86.5387 71.5341C93.7611 73.6376 99.8521 78.5241 103.472 85.1185C107.091 91.713 107.943 99.4753 105.84 106.698C103.736 113.92 98.8496 120.011 92.2551 123.631C85.6607 127.25 77.8984 128.102 70.6759 125.999C63.4535 123.895 57.3625 119.009 53.7429 112.414C50.1232 105.82 49.2715 98.0575 51.375 90.835C53.4785 83.6126 58.365 77.5215 64.9595 73.9019C71.554 70.2823 79.3162 69.4306 86.5387 71.5341ZM122.337 80.4832C121.811 82.2888 120.59 83.8116 118.941 84.7165C117.292 85.6214 115.352 85.8343 113.546 85.3085C111.741 84.7826 110.218 83.561 109.313 81.9123C108.408 80.2637 108.195 78.3232 108.721 76.5175C109.247 74.7119 110.469 73.1892 112.117 72.2843C113.766 71.3794 115.706 71.1664 117.512 71.6923C119.318 72.2182 120.84 73.4398 121.745 75.0884C122.65 76.7371 122.863 78.6776 122.337 80.4832ZM91.2975 55.1947C77.8229 51.2703 75.6115 50.6675 69.2617 49.1195C64.933 48.0774 61.9016 47.8149 58.9423 48.0756C56.4807 48.2471 54.0893 48.9702 51.945 50.1913C49.7617 51.3434 47.8657 52.9722 46.3975 54.9568C44.5854 57.3241 43.1808 60.017 41.7426 64.2244C39.7082 70.1548 39.0577 72.2461 35.0302 86.0746C31.1042 99.5546 30.503 101.761 28.955 108.11C27.9145 112.434 27.6504 115.471 27.9073 118.423C28.1431 121.062 28.7359 123.084 30.0175 125.418C31.32 127.783 32.7059 129.374 34.7845 130.96C37.1721 132.784 39.8688 134.196 44.0599 135.629C49.9903 137.664 52.0831 138.309 65.9117 142.336C79.3917 146.262 81.5977 146.864 87.9475 148.412C92.2653 149.451 95.2967 149.713 98.2598 149.459C100.721 149.288 103.113 148.565 105.257 147.344C107.626 146.048 109.217 144.662 110.805 142.578C112.62 140.2 114.032 137.503 115.468 133.301C117.501 127.376 118.148 125.278 122.174 111.455C126.098 97.9804 126.701 95.7689 128.249 89.4192C129.288 85.1013 129.548 82.0575 129.293 79.0998C129.121 76.6382 128.398 74.2467 127.177 72.1025C126.025 69.9192 124.396 68.0232 122.411 66.555C120.044 64.7429 117.346 63.3366 113.144 61.9001C107.219 59.8672 105.126 59.2223 91.292 55.1931M94.4646 44.3002C109.263 48.6101 111.093 49.2023 116.825 51.1672C122.541 53.1273 126.23 55.1885 129.306 57.5497C132.498 59.98 134.98 62.7356 137.128 66.6403C139.106 70.169 140.29 74.0869 140.597 78.1204C140.932 81.9816 140.695 86.2022 139.278 92.082C137.843 97.9625 137.376 99.8295 133.066 114.627C128.757 129.426 128.164 131.256 126.201 136.983C124.238 142.709 122.174 146.386 119.817 149.469C117.392 152.707 114.29 155.376 110.726 157.291C107.198 159.269 103.28 160.453 99.2462 160.76C95.385 161.095 91.1644 160.858 85.2901 159.443C79.4041 158.006 77.5372 157.539 62.7391 153.229C47.9411 148.919 46.1106 148.327 40.3786 146.362C34.6629 144.402 30.9807 142.337 27.8976 139.98C24.6598 137.555 21.9903 134.453 20.0755 130.889C18.0976 127.361 16.9138 123.443 16.6066 119.409C16.2663 115.546 16.5084 111.327 17.9255 105.448C19.355 99.5655 19.8274 97.7001 24.1373 82.9021C28.4472 68.104 29.0394 66.2736 31.0027 60.5469C32.966 54.8203 35.024 51.142 37.3868 48.0606C39.8117 44.8228 42.9141 42.1533 46.4774 40.2384C50.0061 38.2606 53.924 37.0767 57.9575 36.7695C61.8203 36.4293 66.0339 36.6697 71.9137 38.0868C77.805 39.525 79.672 39.9919 94.47 44.3018" fill="#199FEC" fill-opacity="0.15" shape-rendering="crispEdges"/>
<path d="M73.8485 115.106L73.5337 116.187L73.8485 115.106ZM86.5387 71.5341L86.8535 70.4531L86.5387 71.5341ZM105.84 106.698L104.759 106.383L105.84 106.698ZM70.6759 125.999L70.9908 124.918L70.6759 125.999ZM69.2617 49.1195L69.5284 48.0257L69.5252 48.0249L69.2617 49.1195ZM58.9423 48.0756L59.0206 49.1988L59.0309 49.198L59.0411 49.1971L58.9423 48.0756ZM51.945 50.1913L52.4704 51.187L52.4864 51.1786L52.5021 51.1697L51.945 50.1913ZM46.3975 54.9568L47.2915 55.6411L47.2971 55.6337L47.3026 55.6263L46.3975 54.9568ZM41.7426 64.2244L42.8076 64.5898L42.808 64.5886L41.7426 64.2244ZM28.955 108.11L27.8612 107.844L27.8604 107.847L28.955 108.11ZM27.9073 118.423L26.7856 118.52L26.7859 118.523L27.9073 118.423ZM30.0175 125.418L29.0305 125.96L29.0314 125.962L30.0175 125.418ZM34.7845 130.96L35.468 130.066L35.4675 130.065L34.7845 130.96ZM44.0599 135.629L44.4253 134.565L44.4242 134.564L44.0599 135.629ZM87.9475 148.412L87.6808 149.505L87.6841 149.506L87.9475 148.412ZM98.2598 149.459L98.1815 148.336L98.1727 148.337L98.1638 148.338L98.2598 149.459ZM105.257 147.344L104.717 146.356L104.708 146.361L104.7 146.365L105.257 147.344ZM110.805 142.578L109.91 141.895L109.909 141.896L110.805 142.578ZM115.468 133.301L114.403 132.936L114.403 132.937L115.468 133.301ZM128.249 89.4192L129.343 89.6858L129.343 89.6826L128.249 89.4192ZM129.293 79.0998L128.169 79.1781L128.17 79.1873L128.171 79.1966L129.293 79.0998ZM127.177 72.1025L126.181 72.6279L126.19 72.6439L126.199 72.6596L127.177 72.1025ZM122.411 66.555L121.727 67.449L121.734 67.4546L121.742 67.4601L122.411 66.555ZM113.144 61.9001L112.778 62.965L112.78 62.9654L113.144 61.9001ZM116.825 51.1672L117.19 50.1022L117.19 50.1022L116.825 51.1672ZM129.306 57.5497L128.621 58.4428L128.624 58.4454L129.306 57.5497ZM137.128 66.6403L136.142 67.1829L136.146 67.1908L137.128 66.6403ZM140.597 78.1204L139.474 78.2059L139.475 78.2177L140.597 78.1204ZM139.278 92.082L140.372 92.3489L140.373 92.3458L139.278 92.082ZM119.817 149.469L118.923 148.785L118.916 148.794L119.817 149.469ZM110.726 157.291L110.193 156.299L110.185 156.304L110.176 156.309L110.726 157.291ZM99.2462 160.76L99.1607 159.637L99.149 159.638L99.2462 160.76ZM85.2901 159.443L85.0231 160.537L85.0263 160.537L85.2901 159.443ZM40.3786 146.362L40.0134 147.427L40.0135 147.427L40.3786 146.362ZM27.8976 139.98L28.5815 139.085L28.5725 139.079L27.8976 139.98ZM20.0755 130.889L21.0672 130.356L21.0625 130.347L21.0576 130.339L20.0755 130.889ZM16.6066 119.409L17.7293 119.324L17.7281 119.31L16.6066 119.409ZM17.9255 105.448L16.8315 105.182L16.831 105.184L17.9255 105.448ZM37.3868 48.0606L38.2802 48.7457L38.2879 48.7355L37.3868 48.0606ZM46.4774 40.2384L47.0103 41.2301L47.0191 41.2254L47.0279 41.2205L46.4774 40.2384ZM57.9575 36.7695L58.043 37.8922L58.0563 37.891L57.9575 36.7695ZM71.9137 38.0868L72.1806 36.9931L72.1774 36.9923L71.9137 38.0868ZM83.3661 82.427L83.6809 81.3461C79.0608 80.0004 74.0953 80.5453 69.8769 82.8607L70.4186 83.8477L70.9603 84.8346C74.6553 82.8065 79.0045 82.3293 83.0513 83.5079L83.3661 82.427ZM70.4186 83.8477L69.8769 82.8607C65.6585 85.1762 62.5326 89.0726 61.187 93.6927L62.2679 94.0076L63.3489 94.3224C64.5275 90.2756 67.2654 86.8627 70.9603 84.8346L70.4186 83.8477ZM62.2679 94.0076L61.187 93.6927C59.8414 98.3129 60.3862 103.278 62.7017 107.497L63.6886 106.955L64.6756 106.413C62.6475 102.718 62.1703 98.3692 63.3489 94.3224L62.2679 94.0076ZM63.6886 106.955L62.7017 107.497C65.0171 111.715 68.9135 114.841 73.5337 116.187L73.8485 115.106L74.1633 114.025C70.1165 112.846 66.7037 110.108 64.6756 106.413L63.6886 106.955ZM73.8485 115.106L73.5337 116.187C78.1538 117.532 83.1193 116.987 87.3377 114.672L86.796 113.685L86.2543 112.698C82.5593 114.726 78.2101 115.203 74.1633 114.025L73.8485 115.106ZM86.796 113.685L87.3377 114.672C91.5562 112.357 94.682 108.46 96.0276 103.84L94.9467 103.525L93.8657 103.21C92.6871 107.257 89.9492 110.67 86.2543 112.698L86.796 113.685ZM94.9467 103.525L96.0276 103.84C97.3732 99.2198 96.8284 94.2544 94.5129 90.0359L93.526 90.5777L92.539 91.1194C94.5671 94.8143 95.0444 99.1636 93.8657 103.21L94.9467 103.525ZM93.526 90.5777L94.5129 90.0359C92.1975 85.8175 88.3011 82.6917 83.6809 81.3461L83.3661 82.427L83.0513 83.5079C87.0981 84.6866 90.5109 87.4245 92.539 91.1194L93.526 90.5777ZM86.5387 71.5341L86.2238 72.615C93.1596 74.635 99.0088 79.3276 102.485 85.6603L103.472 85.1185L104.459 84.5768C100.695 77.7206 94.3626 72.6402 86.8535 70.4531L86.5387 71.5341ZM103.472 85.1185L102.485 85.6603C105.961 91.993 106.779 99.4471 104.759 106.383L105.84 106.698L106.921 107.013C109.108 99.5034 108.222 91.433 104.459 84.5768L103.472 85.1185ZM105.84 106.698L104.759 106.383C102.739 113.319 98.0461 119.168 91.7134 122.644L92.2551 123.631L92.7968 124.618C99.6531 120.854 104.733 114.522 106.921 107.013L105.84 106.698ZM92.2551 123.631L91.7134 122.644C85.3807 126.12 77.9265 126.938 70.9908 124.918L70.6759 125.999L70.3611 127.08C77.8703 129.267 85.9406 128.381 92.7968 124.618L92.2551 123.631ZM70.6759 125.999L70.9908 124.918C64.055 122.898 58.2058 118.205 54.7298 111.872L53.7429 112.414L52.7559 112.956C56.5192 119.812 62.852 124.893 70.3611 127.08L70.6759 125.999ZM53.7429 112.414L54.7298 111.872C51.2539 105.54 50.4359 98.0856 52.456 91.1498L51.375 90.835L50.2941 90.5202C48.1071 98.0293 48.9926 106.1 52.7559 112.956L53.7429 112.414ZM51.375 90.835L52.456 91.1498C54.476 84.2141 59.1685 78.3648 65.5012 74.8889L64.9595 73.9019L64.4178 72.915C57.5615 76.6783 52.4811 83.0111 50.2941 90.5202L51.375 90.835ZM64.9595 73.9019L65.5012 74.8889C71.8339 71.4129 79.2881 70.595 86.2238 72.615L86.5387 71.5341L86.8535 70.4531C79.3443 68.2661 71.274 69.1517 64.4178 72.915L64.9595 73.9019ZM122.337 80.4832L121.256 80.1684C120.814 81.6873 119.786 82.9683 118.399 83.7296L118.941 84.7165L119.483 85.7035C121.393 84.6549 122.809 82.8903 123.418 80.798L122.337 80.4832ZM118.941 84.7165L118.399 83.7296C117.012 84.4908 115.38 84.6699 113.861 84.2275L113.546 85.3085L113.231 86.3894C115.324 86.9988 117.572 86.752 119.483 85.7035L118.941 84.7165ZM113.546 85.3085L113.861 84.2275C112.342 83.7851 111.061 82.7575 110.3 81.3706L109.313 81.9123L108.326 82.4541C109.375 84.3644 111.139 85.78 113.231 86.3894L113.546 85.3085ZM109.313 81.9123L110.3 81.3706C109.539 79.9838 109.36 78.3513 109.802 76.8324L108.721 76.5175L107.64 76.2027C107.031 78.295 107.277 80.5437 108.326 82.4541L109.313 81.9123ZM108.721 76.5175L109.802 76.8324C110.244 75.3134 111.272 74.0325 112.659 73.2712L112.117 72.2843L111.575 71.2973C109.665 72.3459 108.249 74.1104 107.64 76.2027L108.721 76.5175ZM112.117 72.2843L112.659 73.2712C114.046 72.51 115.678 72.3309 117.197 72.7733L117.512 71.6923L117.827 70.6114C115.734 70.002 113.486 70.2487 111.575 71.2973L112.117 72.2843ZM117.512 71.6923L117.197 72.7733C118.716 73.2156 119.997 74.2433 120.758 75.6302L121.745 75.0884L122.732 74.5467C121.684 72.6363 119.919 71.2208 117.827 70.6114L117.512 71.6923ZM121.745 75.0884L120.758 75.6302C121.52 77.017 121.699 78.6495 121.256 80.1684L122.337 80.4832L123.418 80.798C124.028 78.7058 123.781 76.4571 122.732 74.5467L121.745 75.0884ZM91.2975 55.1947L91.6123 54.1138C78.1344 50.1884 75.9033 49.5799 69.5284 48.0257L69.2617 49.1195L68.995 50.2133C75.3196 51.7552 77.5115 52.3522 90.9826 56.2756L91.2975 55.1947ZM69.2617 49.1195L69.5252 48.0249C65.115 46.9632 61.9571 46.6798 58.8435 46.9541L58.9423 48.0756L59.0411 49.1971C61.8461 48.95 64.751 49.1916 68.9982 50.2141L69.2617 49.1195ZM58.9423 48.0756L58.8641 46.9525C56.234 47.1358 53.6789 47.9083 51.3879 49.213L51.945 50.1913L52.5021 51.1697C54.4996 50.0321 56.7275 49.3585 59.0206 49.1988L58.9423 48.0756ZM51.945 50.1913L51.4196 49.1956C49.0869 50.4266 47.0611 52.1668 45.4924 54.2872L46.3975 54.9568L47.3026 55.6263C48.6703 53.7776 50.4366 52.2603 52.4704 51.187L51.945 50.1913ZM46.3975 54.9568L45.5035 54.2724C43.5981 56.7618 42.1431 59.572 40.6773 63.8603L41.7426 64.2244L42.808 64.5886C44.2185 60.4619 45.5728 57.8865 47.2915 55.6411L46.3975 54.9568ZM41.7426 64.2244L40.6777 63.8591C38.6341 69.8162 37.9775 71.9289 33.9493 85.7598L35.0302 86.0746L36.1111 86.3894C40.138 72.5632 40.7823 70.4935 42.8076 64.5898L41.7426 64.2244ZM35.0302 86.0746L33.9493 85.7598C30.0223 99.2431 29.4154 101.469 27.8612 107.844L28.955 108.11L30.0488 108.377C31.5907 102.052 32.1861 99.8661 36.1111 86.3894L35.0302 86.0746ZM28.955 108.11L27.8604 107.847C26.8003 112.251 26.5154 115.414 26.7856 118.52L27.9073 118.423L29.0289 118.325C28.7854 115.527 29.0286 112.616 30.0496 108.374L28.955 108.11ZM27.9073 118.423L26.7859 118.523C27.035 121.31 27.671 123.483 29.0305 125.96L30.0175 125.418L31.0045 124.877C29.8009 122.684 29.2513 120.813 29.0286 118.323L27.9073 118.423ZM30.0175 125.418L29.0314 125.962C30.4097 128.464 31.8991 130.175 34.1015 131.856L34.7845 130.96L35.4675 130.065C33.5126 128.574 32.2302 127.102 31.0036 124.875L30.0175 125.418ZM34.7845 130.96L34.1011 131.855C36.6089 133.771 39.4217 135.233 43.6956 136.695L44.0599 135.629L44.4242 134.564C40.3158 133.159 37.7353 131.798 35.468 130.066L34.7845 130.96ZM44.0599 135.629L43.6946 136.694C49.6521 138.738 51.7669 139.389 65.5969 143.417L65.9117 142.336L66.2265 141.255C52.3994 137.228 50.3286 136.59 44.4253 134.565L44.0599 135.629ZM65.9117 142.336L65.5969 143.417C79.0802 147.344 81.3058 147.951 87.6808 149.505L87.9475 148.412L88.2141 147.318C81.8896 145.776 79.7031 145.181 66.2265 141.255L65.9117 142.336ZM87.9475 148.412L87.6841 149.506C92.0839 150.565 95.2405 150.848 98.3559 150.581L98.2598 149.459L98.1638 148.338C95.3529 148.578 92.4467 148.336 88.2109 147.317L87.9475 148.412ZM98.2598 149.459L98.3381 150.583C100.968 150.399 103.523 149.627 105.814 148.322L105.257 147.344L104.7 146.365C102.702 147.503 100.475 148.176 98.1815 148.336L98.2598 149.459ZM105.257 147.344L105.797 148.331C108.306 146.959 110.018 145.469 111.7 143.261L110.805 142.578L109.909 141.896C108.416 143.856 106.945 145.137 104.717 146.356L105.257 147.344ZM110.805 142.578L111.7 143.261C113.607 140.763 115.069 137.95 116.533 133.665L115.468 133.301L114.403 132.937C112.994 137.057 111.633 139.637 109.91 141.895L110.805 142.578ZM115.468 133.301L116.533 133.667C118.575 127.715 119.228 125.594 123.254 111.77L122.174 111.455L121.093 111.14C117.067 124.962 116.427 127.038 114.403 132.936L115.468 133.301ZM122.174 111.455L123.254 111.77C127.18 98.2919 127.788 96.0608 129.343 89.6858L128.249 89.4192L127.155 89.1525C125.613 95.4771 125.016 97.6689 121.093 111.14L122.174 111.455ZM128.249 89.4192L129.343 89.6826C130.402 85.2821 130.683 82.1128 130.414 79.003L129.293 79.0998L128.171 79.1966C128.413 82.0021 128.173 84.9206 127.154 89.1558L128.249 89.4192ZM129.293 79.0998L130.416 79.0215C130.232 76.3915 129.46 73.8363 128.155 71.5453L127.177 72.1025L126.199 72.6596C127.336 74.6571 128.01 76.8849 128.169 79.1781L129.293 79.0998ZM127.177 72.1025L128.173 71.577C126.942 69.2443 125.201 67.2186 123.081 65.6499L122.411 66.555L121.742 67.4601C123.591 68.8278 125.108 70.594 126.181 72.6279L127.177 72.1025ZM122.411 66.555L123.096 65.661C120.606 63.7555 117.791 62.2989 113.508 60.8348L113.144 61.9001L112.78 62.9654C116.901 64.3744 119.482 65.7303 121.727 67.449L122.411 66.555ZM113.144 61.9001L113.509 60.8352C107.557 58.793 105.442 58.1417 91.6068 54.1122L91.292 55.1931L90.9772 56.2741C104.81 60.3028 106.881 60.9414 112.778 62.965L113.144 61.9001ZM94.4646 44.3002L94.1497 45.3811C108.944 49.6899 110.754 50.2762 116.46 52.2322L116.825 51.1672L117.19 50.1022C111.432 48.1285 109.581 47.5303 94.7794 43.2193L94.4646 44.3002ZM116.825 51.1672L116.46 52.2322C122.077 54.1585 125.654 56.1659 128.621 58.4427L129.306 57.5497L129.992 56.6566C126.806 54.2111 123.005 52.0961 117.19 50.1022L116.825 51.1672ZM129.306 57.5497L128.624 58.4454C131.696 60.7848 134.073 63.4218 136.142 67.1829L137.128 66.6403L138.115 66.0977C135.888 62.0493 133.299 59.1753 129.988 56.6539L129.306 57.5497ZM137.128 66.6403L136.146 67.1908C138.044 70.5766 139.18 74.3357 139.475 78.2059L140.597 78.1204L141.72 78.0349C141.4 73.838 140.168 69.7615 138.11 66.0898L137.128 66.6403ZM140.597 78.1204L139.475 78.2177C139.798 81.9427 139.576 86.0408 138.184 91.8182L139.278 92.082L140.373 92.3458C141.814 86.3637 142.065 82.0205 141.719 78.0231L140.597 78.1204ZM139.278 92.082L138.184 91.8151C136.755 97.6723 136.293 99.5213 131.985 114.313L133.066 114.627L134.147 114.942C138.459 100.138 138.931 98.2527 140.372 92.3489L139.278 92.082ZM133.066 114.627L131.985 114.313C127.677 129.107 127.09 130.917 125.136 136.617L126.201 136.983L127.266 137.348C129.238 131.595 129.836 129.744 134.147 114.942L133.066 114.627ZM126.201 136.983L125.136 136.617C123.207 142.244 121.197 145.81 118.923 148.785L119.817 149.469L120.711 150.153C123.151 146.962 125.268 143.174 127.266 137.348L126.201 136.983ZM119.817 149.469L118.916 148.794C116.589 151.901 113.612 154.462 110.193 156.299L110.726 157.291L111.259 158.283C114.967 156.29 118.195 153.513 120.718 150.144L119.817 149.469ZM110.726 157.291L110.176 156.309C106.79 158.207 103.031 159.343 99.1607 159.637L99.2462 160.76L99.3317 161.883C103.529 161.563 107.605 160.331 111.277 158.273L110.726 157.291ZM99.2462 160.76L99.149 159.638C95.4239 159.961 91.3258 159.739 85.5538 158.348L85.2901 159.443L85.0263 160.537C91.003 161.977 95.3462 162.228 99.3435 161.882L99.2462 160.76ZM85.2901 159.443L85.557 158.349C79.6943 156.918 77.8453 156.456 63.054 152.148L62.7391 153.229L62.4243 154.31C77.229 158.622 79.114 159.094 85.0231 160.537L85.2901 159.443ZM62.7391 153.229L63.054 152.148C48.2598 147.84 46.4499 147.253 40.7437 145.297L40.3786 146.362L40.0135 147.427C45.7713 149.401 47.6224 149.999 62.4243 154.31L62.7391 153.229ZM40.3786 146.362L40.7438 145.297C35.128 143.372 31.5565 141.36 28.5815 139.086L27.8976 139.98L27.2138 140.874C30.4048 143.314 34.1977 145.433 40.0134 147.427L40.3786 146.362ZM27.8976 139.98L28.5725 139.079C25.4659 136.752 22.9045 133.775 21.0672 130.356L20.0755 130.889L19.0838 131.422C21.0762 135.13 23.8538 138.358 27.2227 140.881L27.8976 139.98ZM20.0755 130.889L21.0576 130.339C19.1598 126.953 18.0239 123.194 17.7292 119.324L16.6066 119.409L15.484 119.495C15.8036 123.692 17.0354 127.768 19.0934 131.44L20.0755 130.889ZM16.6066 119.409L17.7281 119.31C17.4 115.586 17.6273 111.49 19.02 105.711L17.9255 105.448L16.831 105.184C15.3895 111.165 15.1327 115.507 15.4851 119.508L16.6066 119.409ZM17.9255 105.448L19.0195 105.713C20.4431 99.8557 20.91 98.0092 25.2182 83.2169L24.1373 82.9021L23.0564 82.5872C18.7448 97.391 18.2669 99.2752 16.8315 105.182L17.9255 105.448ZM24.1373 82.9021L25.2182 83.2169C29.527 68.4227 30.1133 66.6129 32.0677 60.9121L31.0027 60.5469L29.9377 60.1818C27.9655 65.9343 27.3674 67.7853 23.0564 82.5872L24.1373 82.9021ZM31.0027 60.5469L32.0677 60.9121C33.997 55.2844 36.0013 51.7177 38.2802 48.7456L37.3868 48.0606L36.4933 47.3755C34.0467 50.5664 31.9349 54.3562 29.9377 60.1818L31.0027 60.5469ZM37.3868 48.0606L38.2879 48.7355C40.6146 45.6288 43.5914 43.0674 47.0103 41.2301L46.4774 40.2384L45.9445 39.2467C42.2368 41.2391 39.0088 44.0167 36.4856 47.3857L37.3868 48.0606ZM46.4774 40.2384L47.0279 41.2205C50.4136 39.3228 54.1728 38.1869 58.043 37.8921L57.9575 36.7695L57.872 35.6469C53.6751 35.9665 49.5985 37.1983 45.9269 39.2563L46.4774 40.2384ZM57.9575 36.7695L58.0563 37.891C61.7811 37.5629 65.8715 37.7887 71.6499 39.1813L71.9137 38.0868L72.1774 36.9923C66.1962 35.5508 61.8594 35.2956 57.8587 35.648L57.9575 36.7695ZM71.9137 38.0868L71.6467 39.1805C77.5148 40.613 79.3639 41.0748 94.1552 45.3827L94.47 44.3018L94.7848 43.2209C79.9801 38.909 78.0952 38.4369 72.1806 36.9931L71.9137 38.0868Z" fill="#199FEC" fill-opacity="0.75" mask="url(#path-1-inside-1_2004_4111)"/>
</g>
</g>
<defs>
<filter id="filter0_d_2004_4111" x="-19.8878" y="6.33523" width="196.977" height="196.975" filterUnits="userSpaceOnUse" color-interpolation-filters="sRGB">
<feFlood flood-opacity="0" result="BackgroundImageFix"/>
<feColorMatrix in="SourceAlpha" type="matrix" values="0 0 0 0 0 0 0 0 0 0 0 0 0 0 0 0 0 0 127 0" result="hardAlpha"/>
<feOffset dy="6.05943"/>
<feGaussianBlur stdDeviation="18.1783"/>
<feComposite in2="hardAlpha" operator="out"/>
<feColorMatrix type="matrix" values="0 0 0 0 0 0 0 0 0 0 0 0 0 0 0 0 0 0 0.15 0"/>
<feBlend mode="normal" in2="BackgroundImageFix" result="effect1_dropShadow_2004_4111"/>
<feBlend mode="normal" in="SourceGraphic" in2="effect1_dropShadow_2004_4111" result="shape"/>
</filter>
<clipPath id="clip0_2004_4111">
<rect width="156" height="128" fill="white"/>
</clipPath>
</defs>
</svg>
